<svg xmlns="http://www.w3.org/2000/svg" version="1.1" xmlns:xlink="http://www.w3.org/1999/xlink" xmlns:svgjs="http://svgjs.dev/svgjs" width="1000" height="750" viewBox="0 0 1000 750"><rect width="1000" height="750" fill="#ffffff"></rect><g transform="matrix(0.834,0,0,0.834,83,40.149)"><svg viewBox="0 0 448 360" data-background-color="#ffffff" preserveAspectRatio="xMidYMid meet" height="803" width="1000" xmlns="http://www.w3.org/2000/svg" xmlns:xlink="http://www.w3.org/1999/xlink"><g id="tight-bounds" transform="matrix(1,0,0,1,0,0)"><svg viewBox="0 0 448 360" height="360" width="448"><g><svg></svg></g><g><svg viewBox="0 0 448 360" height="360" width="448"><g><path xmlns="http://www.w3.org/2000/svg" d="M193.855 44.683c1.378 0 2.494 1.116 2.495 2.494 0 1.378-1.116 2.494-2.495 2.495h-23.846l-17.167 17.167c-0.973 0.973-2.551 0.973-3.53 0-0.973-0.973-0.973-2.551 0-3.529l13.644-13.645h-40.378c-11.518 0-19.151 2.688-23.815 8.113-4.739 5.519-6.66 14.056-6.66 25.63 0 0.069 0 0.137-0.006 0.206l0.212 36.692 14.692-14.692c0.973-0.973 2.551-0.973 3.53 0 0.973 0.973 0.973 2.551 0 3.53l-18.178 18.178c0.206 35.832 0.193 71.358-0.013 107.19 25.486 25.2 50.617 50.312 75.811 75.791h25.38c1.378 0 2.494 1.116 2.495 2.495 0 1.378-1.116 2.494-2.495 2.494h-20.448l25.942 26.241 0.006-0.006c8.188 8.188 15.577 12.859 22.824 13.413 7.146 0.543 14.442-2.956 22.586-11.093l28.555-28.555h-20.722c-1.378 0-2.494-1.116-2.495-2.494 0-1.378 1.116-2.494 2.495-2.495h25.711l16.625-16.625c0.973-0.973 2.551-0.973 3.529 0 0.973 0.973 0.973 2.551 0 3.53l-13.101 13.102h40.377c11.518 0 19.151-2.688 23.815-8.113 4.739-5.519 6.66-14.056 6.66-25.63h0.013l-0.212-36.898-16.014 16.014c-0.973 0.973-2.551 0.973-3.53 0-0.973-0.973-0.973-2.551 0-3.53l19.5-19.5c-0.206-35.832-0.193-71.358 0.013-107.19-25.486-25.2-50.617-50.312-75.811-75.791h-26.147c-1.378 0-2.494-1.116-2.495-2.495 0-1.378 1.116-2.494 2.495-2.494h21.215l-25.824-26.123c-0.044-0.037-0.081-0.075-0.124-0.112-8.188-8.188-15.577-12.859-22.824-13.413-7.146-0.543-14.442 2.956-22.586 11.093l-28.555 28.555h18.858zM122.578 44.683h45.367l32.078-32.078c9.248-9.248 17.81-13.195 26.484-12.534 8.568 0.649 16.956 5.824 25.985 14.854 0.05 0.05 0.094 0.094 0.137 0.143l29.278 29.615h43.508c13.071 0 21.919 3.268 27.594 9.871 5.6 6.517 7.864 16.101 7.864 28.867 0 0.081-0.006 0.156-0.012 0.23l-0.225 39.742 28.43 28.112 0.006-0.006c9.03 9.03 14.206 17.411 14.854 25.985 0.661 8.674-3.293 17.236-12.534 26.484l-30.768 30.768 0.237 41.843h0.012c0 12.765-2.27 22.35-7.864 28.867-5.675 6.604-14.524 9.872-27.594 9.871h-45.366l-32.078 32.078c-9.248 9.248-17.81 13.195-26.484 12.534-8.568-0.649-16.956-5.824-25.985-14.854l0.006-0.006-29.421-29.758h-43.509c-13.071 0-21.919-3.268-27.594-9.872-5.6-6.517-7.864-16.101-7.863-28.866h0.012l0.231-39.972-28.293-27.969c-0.05-0.044-0.1-0.087-0.143-0.137-9.03-9.03-14.206-17.411-14.854-25.985-0.661-8.674 3.293-17.236 12.534-26.484l30.768-30.768-0.237-41.607c-0.006-0.075-0.012-0.156-0.012-0.23 0-12.765 2.27-22.35 7.864-28.867 5.675-6.604 14.524-9.872 27.594-9.871zM87.682 179.997l-0.274-47.724-27.276 27.276c-8.138 8.138-11.636 15.44-11.094 22.587 0.549 7.246 5.226 14.642 13.413 22.823 0.037 0.037 0.081 0.081 0.113 0.125l24.837 24.551 0.281-49.644zM92.303 241.483l-0.2 35.09h0.013c0 11.58 1.921 20.117 6.66 25.63 4.664 5.432 12.297 8.113 23.815 8.113h38.576l-33.55-33.936-35.308-34.903zM325.415 49.672h-38.575l33.549 33.936 35.308 34.902 0.2-34.884c-0.006-0.069-0.006-0.137-0.007-0.205 0-11.58-1.921-20.117-6.66-25.63-4.664-5.432-12.297-8.113-23.815-8.113zM360.599 130.352l-0.281 49.645 0.274 47.724 27.276-27.276c8.138-8.138 11.636-15.44 11.094-22.587-0.549-7.252-5.226-14.642-13.413-22.824l0.006-0.006-24.956-24.669z" fill="#551e19" fill-rule="nonzero" stroke="none" stroke-width="1" stroke-linecap="butt" stroke-linejoin="miter" stroke-miterlimit="10" stroke-dasharray="" stroke-dashoffset="0" font-family="none" font-weight="none" font-size="none" text-anchor="none" style="mix-blend-mode: normal" data-fill-palette-color="tertiary"></path></g><g transform="matrix(1,0,0,1,112,154.18316909264047)"><svg viewBox="0 0 224 51.63366181471909" height="51.63366181471909" width="224"><g><svg viewBox="0 0 224 51.63366181471909" height="51.63366181471909" width="224"><g><svg viewBox="0 0 224 51.63366181471909" height="51.63366181471909" width="224"><g><svg viewBox="0 0 224 51.63366181471909" height="51.63366181471909" width="224"><g><svg viewBox="0 0 224 51.63366181471909" height="51.63366181471909" width="224"><path d="M223.476 11.074C222.422 5.715 219.421 4.225 219.421 4.225 210.207-1.295 198.707-0.106 188.377 0.688 170.137 0.72 151.972 1.899 133.775 2.531 95.58 2.628 57.059 1.041 19.053 4.954 15.483 6.154-3.704 5.19 0.635 11.76 1.772 14.494 5.921 17.527 5.795 20.036 6.364 20.475 7.154 19.467 7.49 20.1 8.67 21.804 10.597 21 12.177 22.008 9.976 24.698 11.555 26.939 13.061 29.286 10.407 29.897 7.006 29.608 5.479 31.634 5.321 33.102 4.468 32.824 3.531 32.759 2.846 32.716 1.467 32.877 1.699 33.338 2.488 34.914-0.902 35.825 1.225 37.368-0.239 39.041 2.236 40.488 1.899 42.299 1.857 42.664 2.088 42.975 2.457 43.06 4.089 43.521 1.709 44.422 1.962 45.397 18.706 52.064 36.871 47.455 54.026 50.521 58.48 48.377 55.131 51.282 56.911 50.832 58.301 50.306 59.312 52.482 60.881 51.25 61.123 50.896 60.755 50.06 61.618 50.221 62.071 50.306 62.471 50.285 62.535 49.792 62.629 49.052 61.797 49.513 61.576 49.127 63.967 47.176 63.377 51.818 65.62 51.625 65.515 51.057 64.862 50.242 66.199 50.349 67.526 49.535 67.568 48.859 68.748 50.692 68.79 51.089 69 51.368 69.337 51.561 73.023 49.567 76.688 52.268 80.553 51.368 82.922 50.381 85.197 51.904 87.598 51.528 88.44 51.228 89.293 50.692 90.104 51.593 100.034 51.786 110.618 50.982 120.032 51.625 145.19 50.424 172.075 52.118 198.602 50.531 204.857 49.92 211.355 49.052 217.452 48.356 217.452 48.356 222.391 46.448 222.391 37.872S223.444 30.369 223.602 23.541C223.76 16.713 224.497 16.434 223.444 11.074Z" opacity="1" fill="#551e19" data-fill-palette-color="tertiary"></path><g transform="matrix(1,0,0,1,31.584000000000003,19.1)"><svg width="160.832" viewBox="2.7300000190734863 -29.540000915527344 358.9100036621094 29.98000144958496" height="13.433661814719086" data-palette-color="#ffffff"><path d="M10.89 0.44L10.89 0.44Q8.74 0.44 6.54-0.07 4.35-0.59 2.98-1.37L2.98-1.37 2.73-7.42 4.54-7.62 5.81-3.47Q7.08-2.69 8.52-2.25 9.96-1.81 11.67-1.81L11.67-1.81Q14.11-1.81 15.67-3.03 17.24-4.25 17.24-6.4L17.24-6.4Q17.24-8.15 16.19-9.3 15.14-10.45 13.5-11.33 11.87-12.21 10.03-13.04 8.2-13.87 6.57-14.94 4.93-16.02 3.88-17.53 2.83-19.04 2.83-21.34L2.83-21.34Q2.83-23.63 4.13-25.39 5.42-27.15 7.67-28.15 9.91-29.15 12.79-29.15L12.79-29.15Q14.11-29.15 15.26-29.03 16.41-28.91 17.41-28.66 18.41-28.42 19.19-28.03L19.19-28.03 19.53-22.27 17.72-22.07 16.41-25.98Q14.89-27 12.26-27L12.26-27Q9.67-27 8.11-25.73 6.54-24.46 6.54-22.46L6.54-22.46Q6.54-20.65 7.59-19.41 8.64-18.16 10.28-17.26 11.91-16.36 13.75-15.53 15.58-14.7 17.21-13.65 18.85-12.6 19.9-11.13 20.95-9.67 20.95-7.47L20.95-7.47Q20.95-5.22 19.65-3.44 18.36-1.66 16.09-0.61 13.82 0.44 10.89 0.44ZM39.89 0.44L39.89 0.44Q35.69 0.44 32.47-1.42 29.25-3.27 27.41-6.59 25.58-9.91 25.58-14.26L25.58-14.26Q25.58-18.51 27.46-21.88 29.34-25.24 32.61-27.17 35.89-29.1 40.04-29.1L40.04-29.1Q44.09-29.1 47.14-27.25 50.19-25.39 51.93-22.12 53.66-18.85 53.66-14.5L53.66-14.5Q53.66-11.38 52.61-8.67 51.56-5.96 49.7-3.91 47.85-1.86 45.33-0.71 42.82 0.44 39.89 0.44ZM40.38-1.9L40.38-1.9Q43.16-1.9 45.19-3.32 47.21-4.74 48.36-7.32 49.51-9.91 49.51-13.33L49.51-13.33Q49.51-17.38 48.24-20.41 46.97-23.44 44.7-25.17 42.43-26.9 39.45-26.9L39.45-26.9Q35.06-26.9 32.49-23.71 29.93-20.51 29.93-15.04L29.93-15.04Q29.93-11.23 31.27-8.25 32.61-5.27 35.01-3.59 37.4-1.9 40.38-1.9ZM80.9-27L78.46-26.32 68.55-11.13 69.53-13.96 69.53-9.42Q69.53-7.32 69.55-6.01 69.58-4.69 69.6-3.93 69.62-3.17 69.65-2.83 69.67-2.49 69.67-2.34L69.67-2.34 73.09-1.71 72.99 0 62.59 0 62.45-1.71 65.86-2.34Q65.91-2.49 65.96-2.83 66.01-3.17 66.04-3.93 66.06-4.69 66.08-6.01 66.11-7.32 66.11-9.42L66.11-9.42 66.11-13.96 66.89-11.13 57.27-26.32 54.83-27 54.88-28.66 64.25-28.66 64.35-27 61.42-26.32 68.89-14.55 68.35-14.55 75.43-26.32 72.02-27 72.11-28.66 80.81-28.66 80.9-27ZM108.93 0L98.43 0 98.33-1.66 101.41-2.15Q101.02-2.69 100.53-3.32 100.04-3.96 99.41-4.64L99.41-4.64 91.5-13.48 89.45-13.48 89.45-15.14 92.18-15.87 102.24-26.32 99.26-27 99.31-28.66 108.34-28.66 108.39-26.9 105.71-26.42 93.69-14.84 93.89-16.11 103.17-5.96Q103.9-5.18 104.51-4.49 105.12-3.81 105.61-3.27 106.1-2.73 106.54-2.39L106.54-2.39 108.93-1.71 108.93 0ZM93.01 0L83.39 0 83.29-1.66 86.22-2.34Q86.32-2.73 86.37-4.47 86.42-6.2 86.42-9.42L86.42-9.42 86.42-19.19Q86.42-21.44 86.39-22.95 86.37-24.46 86.35-25.29 86.32-26.12 86.22-26.32L86.22-26.32 83.24-27 83.34-28.66 93.01-28.66 93.11-27 90.13-26.32Q90.08-26.17 90.01-25.42 89.93-24.66 89.91-23.14 89.89-21.63 89.89-19.19L89.89-19.19 89.89-9.42Q89.89-6.2 89.93-4.47 89.98-2.73 90.03-2.34L90.03-2.34 93.16-1.66 93.01 0ZM125.09 0.44L125.09 0.44Q120.89 0.44 117.67-1.42 114.44-3.27 112.61-6.59 110.78-9.91 110.78-14.26L110.78-14.26Q110.78-18.51 112.66-21.88 114.54-25.24 117.81-27.17 121.08-29.1 125.23-29.1L125.23-29.1Q129.29-29.1 132.34-27.25 135.39-25.39 137.12-22.12 138.86-18.85 138.86-14.5L138.86-14.5Q138.86-11.38 137.81-8.67 136.76-5.96 134.9-3.91 133.05-1.86 130.53-0.71 128.02 0.44 125.09 0.44ZM125.58-1.9L125.58-1.9Q128.36-1.9 130.39-3.32 132.41-4.74 133.56-7.32 134.71-9.91 134.71-13.33L134.71-13.33Q134.71-17.38 133.44-20.41 132.17-23.44 129.9-25.17 127.63-26.9 124.65-26.9L124.65-26.9Q120.25-26.9 117.69-23.71 115.13-20.51 115.13-15.04L115.13-15.04Q115.13-11.23 116.47-8.25 117.81-5.27 120.2-3.59 122.6-1.9 125.58-1.9ZM165.71-28.86L165.71-28.86 166.78-21.14 164.83-20.9 162.78-26.42Q162.44-26.51 161.95-26.54 161.46-26.56 161.07-26.56L161.07-26.56 159.31-26.56Q158.83-26.56 157.9-26.56 156.97-26.56 156.24-26.46L156.24-26.46Q156.24-26.12 156.21-24.68 156.19-23.24 156.16-21.41 156.14-19.58 156.14-17.87L156.14-17.87 156.14-10.69Q156.14-7.52 156.19-5.22 156.24-2.93 156.29-2.34L156.29-2.34 160.34-1.76 160.24 0 148.57 0 148.43-1.76 152.53-2.34Q152.53-2.93 152.58-5.22 152.62-7.52 152.62-10.69L152.62-10.69 152.62-17.87Q152.62-19.58 152.62-21.41 152.62-23.24 152.62-24.68 152.62-26.12 152.58-26.46L152.58-26.46Q151.84-26.56 150.94-26.56 150.04-26.56 149.5-26.56L149.5-26.56 147.59-26.56Q147.2-26.56 146.76-26.54 146.33-26.51 145.98-26.42L145.98-26.42 143.88-20.85 141.98-21.14 143.01-28.86Q143.59-28.81 144.13-28.76 144.67-28.71 145.15-28.69 145.64-28.66 146.13-28.66 146.62-28.66 147.16-28.66L147.16-28.66 161.56-28.66Q162.1-28.66 162.59-28.66 163.07-28.66 163.56-28.69 164.05-28.71 164.56-28.76 165.08-28.81 165.71-28.86ZM206.92 0L197.15 0 197.05-1.66 200.03-2.34Q200.13-2.54 200.18-3.25 200.23-3.96 200.25-5.47 200.28-6.98 200.28-9.42L200.28-9.42 200.28-19.19Q200.28-21.73 200.25-23.22 200.23-24.71 200.18-25.44 200.13-26.17 200.03-26.32L200.03-26.32 197.05-27 197.15-28.66 206.92-28.66 207.01-27 204.04-26.32Q203.94-26.17 203.86-25.46 203.79-24.76 203.77-23.27 203.74-21.78 203.74-19.19L203.74-19.19 203.74-9.42Q203.74-6.93 203.77-5.44 203.79-3.96 203.86-3.25 203.94-2.54 204.04-2.34L204.04-2.34 207.01-1.66 206.92 0ZM189.14 0L179.47 0 179.38-1.66 182.4-2.34Q182.45-2.59 182.48-3.42 182.5-4.25 182.53-5.74 182.55-7.23 182.55-9.42L182.55-9.42 182.55-19.19Q182.55-21.44 182.53-22.95 182.5-24.46 182.48-25.29 182.45-26.12 182.4-26.32L182.4-26.32 179.38-27 179.47-28.66 189.14-28.66 189.24-27 186.26-26.32Q186.21-26.17 186.14-25.44 186.07-24.71 186.04-23.22 186.02-21.73 186.02-19.19L186.02-19.19 186.02-9.42Q186.02-6.98 186.04-5.47 186.07-3.96 186.14-3.25 186.21-2.54 186.26-2.34L186.26-2.34 189.24-1.66 189.14 0ZM185.53-13.43L185.53-13.43 185.53-16.06Q186.41-16.02 188.41-15.97 190.41-15.92 193.2-15.92L193.2-15.92Q195.98-15.92 197.93-15.97 199.88-16.02 200.71-16.06L200.71-16.06 200.71-13.43Q199.54-13.57 197.79-13.6 196.03-13.62 193.2-13.62L193.2-13.62Q190.31-13.62 188.48-13.6 186.65-13.57 185.53-13.43ZM226.25 0.44L226.25 0.44Q222.05 0.44 218.83-1.42 215.61-3.27 213.77-6.59 211.94-9.91 211.94-14.26L211.94-14.26Q211.94-18.51 213.82-21.88 215.7-25.24 218.97-27.17 222.25-29.1 226.4-29.1L226.4-29.1Q230.45-29.1 233.5-27.25 236.55-25.39 238.29-22.12 240.02-18.85 240.02-14.5L240.02-14.5Q240.02-11.38 238.97-8.67 237.92-5.96 236.06-3.91 234.21-1.86 231.69-0.71 229.18 0.44 226.25 0.44ZM226.74-1.9L226.74-1.9Q229.52-1.9 231.55-3.32 233.57-4.74 234.72-7.32 235.87-9.91 235.87-13.33L235.87-13.33Q235.87-17.38 234.6-20.41 233.33-23.44 231.06-25.17 228.79-26.9 225.81-26.9L225.81-26.9Q221.42-26.9 218.85-23.71 216.29-20.51 216.29-15.04L216.29-15.04Q216.29-11.23 217.63-8.25 218.97-5.27 221.37-3.59 223.76-1.9 226.74-1.9ZM253.54 0.44L253.54 0.44Q251.39 0.44 249.2-0.07 247-0.59 245.63-1.37L245.63-1.37 245.39-7.42 247.19-7.62 248.46-3.47Q249.73-2.69 251.17-2.25 252.61-1.81 254.32-1.81L254.32-1.81Q256.76-1.81 258.33-3.03 259.89-4.25 259.89-6.4L259.89-6.4Q259.89-8.15 258.84-9.3 257.79-10.45 256.15-11.33 254.52-12.21 252.69-13.04 250.86-13.87 249.22-14.94 247.58-16.02 246.54-17.53 245.49-19.04 245.49-21.34L245.49-21.34Q245.49-23.63 246.78-25.39 248.07-27.15 250.32-28.15 252.57-29.15 255.45-29.15L255.45-29.15Q256.76-29.15 257.91-29.03 259.06-28.91 260.06-28.66 261.06-28.42 261.84-28.03L261.84-28.03 262.18-22.27 260.38-22.07 259.06-25.98Q257.55-27 254.91-27L254.91-27Q252.32-27 250.76-25.73 249.2-24.46 249.2-22.46L249.2-22.46Q249.2-20.65 250.25-19.41 251.3-18.16 252.93-17.26 254.57-16.36 256.4-15.53 258.23-14.7 259.87-13.65 261.5-12.6 262.55-11.13 263.6-9.67 263.6-7.47L263.6-7.47Q263.6-5.22 262.31-3.44 261.01-1.66 258.74-0.61 256.47 0.44 253.54 0.44ZM276.54 0.44L276.54 0.44Q274.39 0.44 272.19-0.07 269.99-0.59 268.63-1.37L268.63-1.37 268.38-7.42 270.19-7.62 271.46-3.47Q272.73-2.69 274.17-2.25 275.61-1.81 277.32-1.81L277.32-1.81Q279.76-1.81 281.32-3.03 282.89-4.25 282.89-6.4L282.89-6.4Q282.89-8.15 281.84-9.3 280.79-10.45 279.15-11.33 277.51-12.21 275.68-13.04 273.85-13.87 272.22-14.94 270.58-16.02 269.53-17.53 268.48-19.04 268.48-21.34L268.48-21.34Q268.48-23.63 269.77-25.39 271.07-27.15 273.31-28.15 275.56-29.15 278.44-29.15L278.44-29.15Q279.76-29.15 280.91-29.03 282.06-28.91 283.06-28.66 284.06-28.42 284.84-28.03L284.84-28.03 285.18-22.27 283.37-22.07 282.06-25.98Q280.54-27 277.9-27L277.9-27Q275.32-27 273.75-25.73 272.19-24.46 272.19-22.46L272.19-22.46Q272.19-20.65 273.24-19.41 274.29-18.16 275.93-17.26 277.56-16.36 279.39-15.53 281.23-14.7 282.86-13.65 284.5-12.6 285.55-11.13 286.6-9.67 286.6-7.47L286.6-7.47Q286.6-5.22 285.3-3.44 284.01-1.66 281.74-0.61 279.47 0.44 276.54 0.44ZM296.75 0L288.89 0 288.79-1.66 291.18-2.34 301.24-28.03 303.73-29.54 314.18-2.34 316.62-1.66 316.48 0 307.49 0 307.39-1.66 310.37-2.34 307.44-9.86 306.91-11.33 301.39-25.05 302.51-25.98 297.09-11.28 296.55-9.81 293.87-2.34 296.85-1.66 296.75 0ZM295.43-9.23L295.43-9.23 295.43-11.62Q296.36-11.57 298.09-11.52 299.83-11.47 302.32-11.47L302.32-11.47Q304.71-11.47 306.44-11.52 308.18-11.57 309.05-11.62L309.05-11.62 309.05-9.23Q307.15-9.28 305.42-9.3 303.68-9.33 302.32-9.33L302.32-9.33Q300.95-9.33 299.26-9.3 297.58-9.28 295.43-9.23ZM328.93 0L319.31 0 319.21-1.66 322.19-2.34Q322.24-2.59 322.26-3.42 322.28-4.25 322.31-5.74 322.33-7.23 322.33-9.42L322.33-9.42 322.33-19.19Q322.33-21.44 322.31-22.95 322.28-24.46 322.26-25.29 322.24-26.12 322.19-26.32L322.19-26.32 319.21-27 319.31-28.66 328.93-28.66 329.02-27 326.04-26.32Q326-26.17 325.92-25.44 325.85-24.71 325.82-23.22 325.8-21.73 325.8-19.19L325.8-19.19 325.8-9.42Q325.8-6.98 325.82-5.47 325.85-3.96 325.92-3.25 326-2.54 326.04-2.34L326.04-2.34 329.02-1.66 328.93 0ZM356.51-6.35L355.92-6.35 355.92-18.31Q355.92-21.34 355.88-23.02 355.83-24.71 355.78-25.46 355.73-26.22 355.68-26.32L355.68-26.32 352.41-27 352.51-28.66 361.49-28.66 361.64-27 358.66-26.32Q358.66-26.22 358.59-25.46 358.51-24.71 358.46-23 358.41-21.29 358.41-18.31L358.41-18.31 358.41-6.05Q358.41-4.69 358.41-3.1 358.41-1.51 358.46 0.2L358.46 0.2 356.51 0.2 338.98-24.41 339.62-24.41 339.62-10.35Q339.62-7.37 339.69-5.69 339.76-4 339.84-3.25 339.91-2.49 339.91-2.34L339.91-2.34 343.18-1.66 343.08 0 334 0 333.9-1.66 336.83-2.34Q336.88-2.49 336.93-3.2 336.98-3.91 337.03-5.62 337.08-7.32 337.08-10.35L337.08-10.35 337.08-19.24Q337.08-21.68 337.05-23.1 337.03-24.51 336.98-25.24 336.93-25.98 336.83-26.32L336.83-26.32 333.9-27 334-28.66 340.4-28.66 356.51-6.35Z" opacity="1" transform="matrix(1,0,0,1,0,0)" fill="#ffffff" class="undefined-text-0" data-fill-palette-color="quaternary" id="text-0"></path></svg></g></svg></g></svg></g></svg></g><g></g></svg></g></svg></g></svg></g><defs></defs></svg><rect width="448" height="360" fill="none" stroke="none" visibility="hidden"></rect></g></svg></g></svg>